<?xml version="1.0" encoding="UTF-8" standalone="no"?>
<!DOCTYPE svg PUBLIC "-//W3C//DTD SVG 1.1//EN" "http://www.w3.org/Graphics/SVG/1.1/DTD/svg11.dtd">
<svg width="100%" height="100%" viewBox="0 0 2666 332" version="1.1" xmlns="http://www.w3.org/2000/svg" xmlns:xlink="http://www.w3.org/1999/xlink" xml:space="preserve" xmlns:serif="http://www.serif.com/" style="fill-rule:evenodd;clip-rule:evenodd;stroke-miterlimit:1.5;">
    <g>
        <g >
            <g>
                <path d="M2310.11,226.868C2279.31,234.825 2230.17,243.143 2156.81,244.585C2010.1,247.467 1720.51,192.495 1446.43,183.188C1172.36,173.882 875.714,258.665 713.709,244.585C555.13,230.802 479.64,195.177 331.274,178.611C182.908,162.045 3.568,233.004 3.568,233.004" style="fill:none;stroke:#ffd21c;stroke-width:3.96px;"/>
                <path d="M2662.09,321.879C2662.09,321.879 2302.07,359.909 1878.04,246.167C1773.28,218.068 1523.26,162.382 1293.47,164.232C1182.31,165.126 987.873,244.009 793.431,255.674C588.953,267.94 385.934,212.846 341.284,206.462C210.312,187.736 3.568,246.886 3.568,246.886" style="fill:none;stroke:#ffd21c;stroke-width:3.96px;"/>
            </g>
            <g>
                <g>
                    <path d="M2485.22,40.879C2506.56,73.094 2513.54,114.386 2500.68,153.952C2478.29,222.798 2404.22,260.517 2335.38,238.13C2295.81,225.264 2266.53,195.328 2253.02,159.124C2268.81,182.964 2292.46,201.833 2321.74,211.354C2390.59,233.74 2464.66,196.021 2487.04,127.175C2496.56,97.896 2495.21,67.671 2485.22,40.879Z" style="fill:#954F9A"/>
                    <g>
                        <path d="M2457.22,216.327C2514.98,200.705 2427.85,175.88 2480.88,142.732" style="fill:none;stroke:#ffd21c;stroke-width:3.96px;"/>
                        <path d="M2310.11,226.868C2340.9,218.912 2353.36,211.316 2353.36,211.316C2353.36,211.316 2375.37,197.863 2416.13,206.203" style="fill:none;stroke:#ffd21c;stroke-width:3.96px;stroke-linecap:round;"/>
                        <path d="M2503.79,142.732C2573.62,114.129 2634.79,3.568 2634.79,3.568" style="fill:none;stroke:#ffd21c;stroke-width:3.96px;stroke-linecap:round;"/>
                    </g>
                </g>
                <path d="M2485.22,40.879C2506.56,73.094 2513.54,114.386 2500.68,153.952C2478.29,222.798 2404.22,260.517 2335.38,238.13C2295.81,225.264 2266.53,195.328 2253.02,159.124C2268.81,182.964 2292.46,201.833 2321.74,211.354C2390.59,233.74 2464.66,196.021 2487.04,127.175C2496.56,97.896 2495.21,67.671 2485.22,40.879Z" style="fill:none;stroke:#ffd21c;stroke-width:3.96px;stroke-linecap:round;"/>
            </g>
        </g>
    </g>
</svg>
